<svg xmlns="http://www.w3.org/2000/svg" xmlns:xlink="http://www.w3.org/1999/xlink" width="2003.313" height="2175.192" viewBox="0 0 2003.313 2175.192"><defs><style>.a{fill:url(#a);}</style><linearGradient id="a" x1="0.714" y1="0.907" x2="-0.038" y2="0.425" gradientUnits="objectBoundingBox"><stop offset="0" stop-color="#db0303"/><stop offset="1" stop-color="#da5dff"/></linearGradient></defs><path class="a" d="M1527.6,221.784c-205.724-77.41-320.59,60.905-568.464,12.374C689.137,181.3,706.927,13.1,527.891,27.789,314.517,45.3,106.533,239.409,120.552,383.889c10.125,104.309,130.5,126.469,130.657,238.252.15,109.038-114.339,127.2-136.577,257.095-26.216,153.109,105.635,287.812,126.288,309.419,22.913,23.97,135.686,141.96,290.069,132.317,106.724-6.666,112.387-86.794,266.389-144.531,118.555-44.448,223.677-41.035,263.381-39.364,180.621,7.6,218.924,82.658,360.17,78.041,152.843-5,263.7-97.925,282.177-114,182.218-158.466,225.452-458.294,103.153-658.312C1721.869,304.79,1592.582,246.238,1527.6,221.784Z" transform="translate(1088.88 -109.742) rotate(60)"/></svg>